<svg width="64" height="64" viewBox="0 0 64 64" fill="none" xmlns="http://www.w3.org/2000/svg">
  <g stroke="#D6B98C" stroke-width="1.5" stroke-linecap="round" stroke-linejoin="round">
    <!-- architectural arch -->
    <path d="M12 52 V30 C12 19 21 12 32 12 C43 12 52 19 52 30 V52"/>
    <path d="M18 52 V31 C18 23 24 18 32 18 C40 18 46 23 46 31 V52"/>
    <!-- keystone (faceted) -->
    <path d="M28 10 H36 L38 18 L32 23 L26 18 Z"/>
    <path d="M28 10 L32 23 M36 10 L32 23" stroke-opacity="0.6"/>
    <!-- columns & base -->
    <path d="M8 52 H56"/>
    <path d="M12 58 H52"/>
    <path d="M24 52 V34 M40 52 V34" stroke-opacity="0.7"/>
  </g>
</svg>
